<svg version="1.1" viewBox="0 0 512 512" xmlns="http://www.w3.org/2000/svg">
<g class="edges" stroke-width="5" fill="none" stroke="black">
  <path d="m256 46v67.588"/>
  <path d="m256 340.64v48.687"/>
  <path d="m119.53 466 39.744-54.68"/>
  <path d="m392.47 466-39.744-54.68"/>
  <path d="m476.81 206.43-64.307 20.905"/>
  <path d="m196.56 297.47-46.253 15.045"/>
  <path d="m219.26 227.63-28.586-39.389"/>
  <path d="m292.74 227.63 28.586-39.389"/>
  <path d="m315.44 297.47 46.253 15.045"/>
  <path d="m35.193 206.43 64.307 20.905"/>
  <path d="m256 340.64-59.441-43.163 22.705-69.838h73.473l22.704 69.838z"/>
  <path d="m256 46 220.81 160.43-84.341 259.57-272.93-1e-5 -84.341-259.57z"/>
  <path d="m256 113.59 65.323 74.658 91.177 39.065-50.806 85.207-8.972 98.801-96.722-21.997-96.722 21.997-8.972-98.801-50.806-85.207 91.178-39.065z"/>
</g>
<g class="vertices" fill="red">
  <circle cx="256" r="10" cy="280" id="tube0"/>
  <circle r="10" cy="250" cx="170" id="tube1"/>
  <circle cx="196.56" r="10" cy="350" id="tube2"/>
  <circle cx="256" r="10" cy="180" id="tube3"/>
  <circle cy="312.52" r="10" cx="100" id="tube4"/>
  <circle r="10" cx="350" cy="250" id="tube5"/>
  <circle cx="315.44" r="10" cy="350" id="tube6"/>
  <circle r="10" cy="150" cx="165" id="tube7"/>
  <circle cx="256" r="10" cy="430" id="tube8"/>
  <circle r="10" cy="150" cx="340" id="tube9"/>
  <circle cx="256" r="10" cy="490" id="tube10"/>
  <circle cy="312.52" r="10" cx="410" id="tube11"/>
</g>
</svg>

