<svg version="1.1" viewBox="0 0 512 512" xmlns="http://www.w3.org/2000/svg">
<g class="edges" stroke-width="5" fill="none" stroke="red">
  <path d="m256 46v67.588"/>
  <path d="m256 340.64v48.687"/>
  <path d="m119.53 466 39.744-54.68"/>
  <path d="m392.47 466-39.744-54.68"/>
  <path d="m476.81 206.43-64.307 20.905"/>
  <path d="m196.56 297.47-46.253 15.045"/>
  <path d="m219.26 227.63-28.586-39.389"/>
  <path d="m292.74 227.63 28.586-39.389"/>
  <path d="m315.44 297.47 46.253 15.045"/>
  <path d="m35.193 206.43 64.307 20.905"/>
  <path d="m256 340.64-59.441-43.163 22.705-69.838h73.473l22.704 69.838z"/>
  <path d="m256 46 220.81 160.43-84.341 259.57-272.93-1e-5 -84.341-259.57z"/>
  <path d="m256 113.59 65.323 74.658 91.177 39.065-50.806 85.207-8.972 98.801-96.722-21.997-96.722 21.997-8.972-98.801-50.806-85.207 91.178-39.065z"/>
</g>
<g class="vertices">
  <circle r="10" cx="255" id="tube0" cy="227"/>
  <circle r="10" cy="210" id="tube1" cx="210"/>
  <circle r="10" cy="265" id="tube2" cx="305"/>
  <circle r="10" cy="265" cx="207" id="tube3"/>
  <circle r="10" cy="152" id="tube4" cx="220"/>
  <circle r="10" cx="305" id="tube5" cy="210"/>
  <circle r="10" cx="290" cy="315" id="tube6"/>
  <circle r="10" id="tube7" cy="305" cx="175"/>
  <circle r="10" cy="210" id="tube8" cx="140"/>
  <circle r="10" cx="290" id="tube9" cy="152"/>
  <circle r="10" cy="210" id="tube10" cx="370"/>
  <circle r="10" cy="305" id="tube11" cx="338"/>
  <circle r="10" cy="315" cx="220" id="tube12"/>
  <circle r="10" cy="265" id="tube13" cx="123"/>
  <circle r="10" id="tube14" cx="70" cy="218"/>
  <circle r="10" cx="255" id="tube15" cy="85"/>
  <circle r="10" cy="265" id="tube16" cx="390"/>
  <circle r="10" cy="365" cx="357" id="tube17"/>
  <circle r="10" cx="256" cy="365" id="tube18"/>
  <circle r="10" cy="365" cx="155" id="tube19"/>
  <circle r="10" cx="140" cy="132" id="tube20"/>
  <circle r="10" cx="375" id="tube21" cy="132"/>
  <circle r="10" id="tube22" cy="218" cx="437"/>
  <circle r="10" cy="400" id="tube23" cx="300"/>
  <circle r="10" cy="400" id="tube24" cx="210"/>
  <circle r="10" cy="440" cx="140" id="tube25"/>
  <circle r="10" id="tube26" cy="340" cx="80"/>
  <circle r="10" cy="340" id="tube27" cx="433"/>
  <circle r="10" cy="440" id="tube28" cx="375"/>
  <circle cy="466" r="10" cx="255" id="tube29"/>





</g>
</svg>
