<svg version="1.1" viewBox="0 0 512 512" xmlns="http://www.w3.org/2000/svg">
<g class="edges" stroke-width="5" fill="none" stroke="black">
  <path d="M60 60 L60 440 L440 440 L440 60 L60 60"/>
  <path d="M145 145 L145 355 L355 355 L355 145 L145 145"/>
  <path d="M60 60 L145 145"/>
  <path d="M60 440 L145 355"/>
  <path d="M440 60 L355 145"/>
  <path d="M440 440 L355 355"/>
</g>
<g class="vertices" fill="red">
  <circle r="10" cx="145" id="tube0" cy="145"/>
  <circle r="10" cx="355" cy="145" id="tube1"/>
  <circle r="10" cx="145" cy="355" id="tube2"/>
  <circle r="10" cx="440" cy="60" id="tube3"/>
  <circle r="10" cx="60" cy="60" id="tube4"/>
  <circle r="10" cx="355" cy="355" id="tube5"/>
  <circle r="10" cx="60" cy="440" id="tube6"/>
  <circle r="10" cx="440" cy="440" id="tube7"/>
</g>
</svg>
